<svg width="119" height="87" viewBox="0 0 119 87" fill="none" xmlns="http://www.w3.org/2000/svg">
<g clip-path="url(#clip0_3_257)">
<path fill-rule="evenodd" clip-rule="evenodd" d="M100.527 39.6808H100.518C101.147 35.7909 102.144 31.9178 101.805 27.9945C100.98 18.4833 95.3043 9.5963 86.9857 4.96827C80.1945 1.18929 72.1388 0.264292 64.695 2.49401C57.5835 4.62652 51.4526 9.58871 47.955 16.1807C46.1677 19.5495 44.9243 23.2586 44.3532 27.0315C42.649 38.2697 48.298 49.871 58.0186 55.6123C64.7524 59.5888 72.8292 60.7021 80.3713 58.6653C85.8223 57.192 90.8776 54.0843 94.629 49.833C97.2291 46.8848 98.7233 43.1757 100.529 39.6793M100.527 39.6808C98.7792 43.2243 97.3469 46.9729 94.7951 49.9803C88.5131 57.3742 78.587 61.3446 68.9721 60.2799C60.9436 59.3898 53.5632 55.3192 48.5216 48.9779C43.6023 42.793 41.1382 34.6335 41.8755 26.7399C42.2668 22.5584 43.5797 18.4954 45.7402 14.9002C51.9028 4.63563 64.1586 -1.34724 75.9823 0.259736C83.9459 1.34118 91.2069 5.55911 96.0642 12.0007C99.5165 16.5847 101.651 22.2319 102.043 27.9748C102.311 31.9208 101.234 35.7909 100.536 39.6838L100.527 39.6808Z" fill="#D61E2A"/>
<path fill-rule="evenodd" clip-rule="evenodd" d="M95.9811 67.3382C92.8008 67.8926 93.319 63.7719 93.2012 62.0191C92.8492 57.1602 93.0214 52.2648 93.0214 47.3938L93.0909 44.6932C93.0561 44.4593 92.204 44.3879 91.3429 44.7707C91.0271 44.9104 90.8201 44.9894 90.4152 45.4359C90.3759 45.4785 90.3367 45.5225 90.2929 45.5681C89.9937 45.9144 89.5722 46.3366 89.4015 46.5402C87.5522 48.7349 85.4658 50.547 83.266 52.4881C81.7763 53.7989 79.5192 55.1613 77.3587 55.3071C76.6169 55.3573 75.8086 55.3375 75.1317 55.0398C68.895 52.28 72.2672 44.2983 63.1796 51.2441C63.0738 51.3231 62.9771 51.3945 62.8895 51.4583C62.1507 52.1251 61.075 52.8405 60.5477 53.2263C56.674 56.0772 46.5545 61.8474 50.5415 52.9149C51.2274 50.7034 52.0569 48.6073 52.0569 46.2895C52.0569 45.6577 51.9602 45.1428 51.7457 44.7236C49.984 41.3213 46.7599 41.1451 44.6614 44.0583L44.2051 44.4335L43.4361 45.2476C41.8724 47.0095 35.8382 53.5786 32.8951 53.5786C32.8286 53.5786 32.7682 53.5771 32.7153 53.5695L32.0913 56.2807C31.1863 59.6101 30.5186 65.8649 28.2312 68.4591C27.3655 69.4191 24.7517 70.2058 23.4524 71.0108L24.3091 64.5784L25.3893 54.7132L25.6038 52.7949C16.0569 59.6162 1.91864 66.9175 0.531698 47.8373C-0.308321 36.2497 15.4556 4.02666 32.5204 18.4697C33.3196 19.1471 34.563 20.5096 35.0238 21.386C36.1222 23.3818 36.9955 25.5781 37.4442 27.7637C36.3111 29.0107 34.5238 31.3802 32.6654 31.7098C31.558 31.9088 30.7542 31.3756 30.6455 30.3382C30.3282 28.6113 30.3554 26.3071 29.4761 24.7639C27.157 20.6797 23.1155 19.3218 18.7462 22.1591C16.3561 23.7098 14.7924 25.8515 13.2604 28.0463C12.153 29.6851 11.5456 31.1022 10.7101 32.8368C9.64046 34.8903 9.14491 37.1732 8.49828 39.3543C7.60689 42.4058 7.26242 45.5559 7.47545 48.7046C7.7474 51.7514 9.48334 56.0058 13.6124 56.0058C17.4726 56.0058 21.3297 52.2435 23.596 49.9136L25.2564 47.9633C25.977 47.1902 26.9651 46.1726 28.2161 44.918C28.9624 44.1585 29.7843 43.5996 30.9567 43.5996C31.5716 43.5996 32.1382 43.7165 32.6654 43.9748C34.6733 44.9089 34.3515 46.0587 34.063 47.7036L33.2154 51.393C34.9815 48.9643 37.3535 47.0019 39.1635 44.6279L43.217 39.974C42.6762 38.3914 42.7336 38.4521 43.832 37.0578C47.3189 32.6393 56.1437 37.2689 57.5578 40.7031L57.8479 41.6144L58.0141 42.14C58.1108 42.5789 58.1818 42.9237 58.2286 43.1682C58.277 43.4052 58.3041 43.6072 58.3041 43.7788C58.3041 44.9696 57.931 46.5781 57.171 48.6149C57.1484 48.6818 54.8564 53.8095 56.257 52.7964C58.2649 51.311 60.1579 49.7344 62.1643 48.2489C64.7463 45.8901 66.6363 44.2694 67.9749 43.2229C70.4572 40.9947 73.2719 39.5336 75.5427 40.7016C76.0171 40.9461 76.3812 41.903 76.6018 43.6619C76.6018 43.7895 76.6108 43.8867 76.6365 43.9732C76.9402 45.8278 77.0097 50.105 80.0147 50.105C82.1148 50.105 86.2952 46.6996 87.8106 45.4526C88.2321 45.1033 88.5917 44.6674 88.8425 44.4487C90.1946 43.0771 91.9034 41.8529 93.5864 40.9492C93.6831 39.2343 93.7889 37.7428 93.9324 36.4776C94.3283 33.0176 94.7679 29.7914 95.5717 26.3892C96.2168 23.8541 97.8999 21.6973 100.104 19.9552C104.804 16.2142 110.808 16.0349 116.707 15.9468C118.745 18.1674 118.248 21.0837 116.492 23.5169C113.865 21.6199 108.418 21.7247 105.304 23.3332C102.16 24.9568 101.193 34.8357 100.381 37.9357L100.249 38.9093C105.187 37.6668 111.863 34.9374 117.033 36.5292C118.007 36.8406 118.5 37.2795 118.5 37.8689C118.5 51.7438 97.8077 30.2091 97.9875 53.6424L97.495 60.7721V64.5678C97.4285 65.71 97.4466 66.8658 95.9796 67.3336" fill="white"/>
<path fill-rule="evenodd" clip-rule="evenodd" d="M78.9648 32.1319C78.3831 34.8887 75.7664 36.6537 73.1209 36.075C70.4754 35.4948 68.8014 32.7896 69.3831 30.0329C69.9648 27.2761 72.58 25.5111 75.227 26.0898C77.8724 26.6701 79.5464 29.3737 78.9648 32.1319Z" fill="#D61E2A"/>
<path d="M26.675 83.8103H25.1355V86.8906H23.7531V78.8967H26.5496C27.0044 78.8967 27.4108 78.9484 27.7674 79.0532C28.1239 79.158 28.4261 79.3114 28.6709 79.5149C28.9171 79.7184 29.1029 79.9691 29.2314 80.2698C29.3583 80.5705 29.4232 80.9184 29.4232 81.3133C29.4232 81.8479 29.2948 82.296 29.038 82.656C28.7811 83.0159 28.4231 83.2939 27.9653 83.4883L29.7511 86.8207V86.8921H28.2705L26.6766 83.8118L26.675 83.8103ZM25.134 82.6955H26.5542C26.802 82.6955 27.018 82.662 27.2038 82.5967C27.3897 82.5314 27.5438 82.4388 27.6677 82.3218C27.7915 82.2049 27.8837 82.0651 27.9457 81.9041C28.0076 81.7431 28.0378 81.5654 28.0378 81.371C28.0378 81.1659 28.0091 80.9806 27.9502 80.8136C27.8913 80.6465 27.8021 80.5037 27.6828 80.3852C27.5619 80.2668 27.4093 80.1741 27.222 80.1103C27.0346 80.0465 26.8095 80.0146 26.5481 80.0146H25.134V82.6939V82.6955Z" fill="white"/>
<path d="M41.5521 83.1025C41.5521 83.7101 41.4736 84.2554 41.3149 84.7353C41.1563 85.2153 40.9342 85.6254 40.6456 85.9595C40.3586 86.2937 40.0126 86.5519 39.6077 86.7311C39.2028 86.9104 38.7556 87 38.2646 87C37.7735 87 37.3309 86.9104 36.926 86.7311C36.5226 86.5519 36.1736 86.2952 35.8805 85.9595C35.5874 85.6254 35.3592 85.2168 35.1976 84.7353C35.0359 84.2538 34.9543 83.7101 34.9543 83.1025V82.697C34.9543 82.0894 35.0359 81.5442 35.1976 81.0612C35.3592 80.5782 35.5859 80.1681 35.8744 79.8309C36.1645 79.4937 36.5105 79.2355 36.9154 79.0562C37.3188 78.877 37.766 78.7874 38.254 78.7874C38.742 78.7874 39.1937 78.877 39.6001 79.0562C40.0065 79.2355 40.354 79.4937 40.6426 79.8309C40.9312 80.1681 41.1563 80.5782 41.3149 81.0612C41.4736 81.5442 41.5521 82.0894 41.5521 82.697V83.1025ZM40.1712 82.6848C40.1712 82.2383 40.1289 81.8434 40.0428 81.5016C39.9567 81.1599 39.8328 80.8728 39.6681 80.6419C39.505 80.4111 39.3025 80.2364 39.0653 80.1179C38.8266 79.9995 38.5562 79.9402 38.254 79.9402C37.9518 79.9402 37.6935 79.9995 37.4563 80.1179C37.2191 80.2364 37.0181 80.4111 36.8535 80.6419C36.6873 80.8728 36.5604 81.1584 36.4712 81.5016C36.3821 81.8434 36.3367 82.2383 36.3367 82.6848V83.1025C36.3367 83.5491 36.3806 83.944 36.4712 84.2888C36.5604 84.6336 36.6888 84.9206 36.8565 85.153C37.0242 85.3854 37.2266 85.5616 37.4653 85.6801C37.704 85.7985 37.97 85.8578 38.2661 85.8578C38.878 85.8578 39.3478 85.6239 39.6772 85.1545C40.0065 84.6867 40.1712 84.0017 40.1712 83.101V82.6833V82.6848ZM38.6574 76.7551H40.1697L38.6574 78.4183H37.5922L38.6574 76.7551Z" fill="white"/>
<path d="M52.6839 80.0161H50.2047V86.8906H48.8343V80.0161H46.3762V78.8967H52.6839V80.0161Z" fill="white"/>
<path d="M64.0167 78.8967V84.2447C64.0167 84.7019 63.9396 85.1029 63.784 85.4477C63.6299 85.7925 63.4169 86.0795 63.1479 86.3104C62.879 86.5413 62.5633 86.7144 62.2037 86.8298C61.8441 86.9453 61.4573 87.003 61.0464 87.003C60.6354 87.003 60.226 86.9453 59.8634 86.8298C59.5008 86.7144 59.1866 86.5413 58.9206 86.3104C58.6547 86.0795 58.4478 85.7925 58.2982 85.4477C58.1486 85.1029 58.0746 84.7034 58.0746 84.2447V78.8967H59.4509V84.2447C59.4509 84.5303 59.4887 84.7763 59.5627 84.9829C59.6368 85.1895 59.744 85.3611 59.883 85.4963C60.0205 85.6315 60.1882 85.7317 60.3862 85.7955C60.5826 85.8593 60.8031 85.8912 61.0464 85.8912C61.2896 85.8912 61.5117 85.8593 61.7096 85.7955C61.9076 85.7317 62.0753 85.6315 62.2127 85.4963C62.3487 85.3611 62.4545 85.1895 62.53 84.9829C62.604 84.7763 62.6418 84.5303 62.6418 84.2447V78.8967H64.0182H64.0167Z" fill="white"/>
<path d="M71.3471 85.7818H74.9565V86.8906H69.9647V78.8967H71.3471V85.7818Z" fill="white"/>
<path d="M86.4871 83.1025C86.4871 83.7101 86.4085 84.2553 86.2499 84.7353C86.0912 85.2168 85.8691 85.6254 85.5806 85.9595C85.2935 86.2937 84.9475 86.5519 84.5426 86.7311C84.1377 86.9103 83.6905 86.9999 83.1995 86.9999C82.7085 86.9999 82.2658 86.9103 81.8609 86.7311C81.4575 86.5519 81.1085 86.2952 80.8154 85.9595C80.5223 85.6254 80.2942 85.2168 80.1325 84.7353C79.9709 84.2538 79.8893 83.7101 79.8893 83.1025V82.697C79.8893 82.0894 79.9694 81.5441 80.1325 81.0611C80.2942 80.5781 80.5208 80.168 80.8094 79.8308C81.0995 79.4936 81.4454 79.2354 81.8503 79.0562C82.2537 78.877 82.7009 78.7874 83.1889 78.7874C83.6769 78.7874 84.1287 78.877 84.5351 79.0562C84.9415 79.2354 85.289 79.4936 85.5775 79.8308C85.8676 80.168 86.0912 80.5781 86.2499 81.0611C86.4085 81.5441 86.4871 82.0894 86.4871 82.697V83.1025ZM85.1062 82.6848C85.1062 82.2383 85.0639 81.8434 84.9778 81.5016C84.8916 81.1599 84.7677 80.8728 84.6031 80.6419C84.4384 80.411 84.2374 80.2364 84.0002 80.1179C83.7615 79.9994 83.4911 79.9402 83.1889 79.9402C82.8868 79.9402 82.6284 79.9994 82.3912 80.1179C82.154 80.2364 81.9531 80.411 81.7884 80.6419C81.6222 80.8728 81.4953 81.1583 81.4062 81.5016C81.317 81.8434 81.2717 82.2383 81.2717 82.6848V83.1025C81.2717 83.5491 81.3155 83.944 81.4062 84.2887C81.4953 84.6335 81.6237 84.9206 81.7914 85.153C81.9591 85.3854 82.1616 85.5616 82.4003 85.68C82.639 85.7985 82.9049 85.8578 83.201 85.8578C83.8129 85.8578 84.2828 85.6238 84.6121 85.1545C84.9415 84.6867 85.1062 84.0017 85.1062 83.101V82.6833V82.6848Z" fill="white"/>
<path d="M96.4934 84.8309C96.4934 84.6699 96.4692 84.5256 96.4224 84.3995C96.3755 84.2735 96.2879 84.1565 96.1625 84.0502C96.0371 83.9439 95.8633 83.8421 95.6443 83.7449C95.4237 83.6477 95.1412 83.5459 94.7952 83.4396C94.416 83.3257 94.067 83.1966 93.7467 83.0493C93.4264 82.9034 93.1499 82.7333 92.9187 82.5389C92.6876 82.3445 92.5063 82.1212 92.3748 81.8691C92.2434 81.6169 92.1784 81.3268 92.1784 81.0018C92.1784 80.6768 92.2464 80.3836 92.3839 80.1117C92.5199 79.8414 92.7118 79.6059 92.9595 79.4085C93.2073 79.211 93.5034 79.0576 93.8494 78.9468C94.1954 78.8374 94.5776 78.7827 94.9961 78.7827C95.4433 78.7827 95.8467 78.848 96.2033 78.9771C96.5598 79.1062 96.862 79.2839 97.1068 79.5072C97.353 79.7305 97.5404 79.9902 97.6718 80.2849C97.8032 80.5796 97.8682 80.894 97.8682 81.2266H96.4918C96.4918 81.0322 96.4616 80.8545 96.4012 80.6919C96.3408 80.5294 96.2486 80.3882 96.1262 80.2697C96.0023 80.1512 95.8452 80.0586 95.6564 79.9917C95.4675 79.9264 95.2424 79.893 94.984 79.893C94.7408 79.893 94.5293 79.9204 94.351 79.975C94.1727 80.0297 94.0247 80.1072 93.9053 80.2059C93.7875 80.3046 93.6998 80.4216 93.6439 80.5568C93.5865 80.6919 93.5593 80.8393 93.5593 80.9957C93.5593 81.2919 93.6983 81.5395 93.9778 81.7369C94.2558 81.9344 94.6819 82.1182 95.253 82.2853C95.7002 82.4174 96.0885 82.5632 96.4163 82.7242C96.7442 82.8852 97.0161 83.0675 97.2322 83.271C97.4482 83.4745 97.6099 83.7024 97.7156 83.9575C97.8214 84.2127 97.8743 84.4983 97.8743 84.8172C97.8743 85.1544 97.8078 85.4567 97.6748 85.7255C97.5419 85.9944 97.353 86.2237 97.1068 86.4121C96.8605 86.6004 96.5629 86.7447 96.2139 86.8465C95.8649 86.9467 95.4751 86.9968 95.0445 86.9968C94.6622 86.9968 94.286 86.9452 93.9144 86.8404C93.5427 86.7356 93.2103 86.5791 92.9142 86.368C92.6196 86.1569 92.3824 85.8956 92.2011 85.5797C92.0198 85.2638 91.9307 84.8947 91.9307 84.4709H93.3131C93.3131 84.7231 93.3584 84.9403 93.4475 85.121C93.5367 85.3018 93.6591 85.4506 93.8132 85.566C93.9673 85.6815 94.1501 85.765 94.3616 85.8182C94.5731 85.8713 94.7997 85.8972 95.0445 85.8972C95.5249 85.8972 95.886 85.7999 96.1293 85.604C96.371 85.4081 96.4918 85.1499 96.4918 84.8263L96.4934 84.8309Z" fill="white"/>
</g>
<defs>
<clipPath id="clip0_3_257">
<rect width="118" height="87" fill="white" transform="translate(0.5)"/>
</clipPath>
</defs>
</svg>
